PathFileType	4	(X/Y/Z)	/Users/itak/Documents/Research/Walk-IL/dataset/trc/00271_00010.trc
DataRate	CameraRate	NumFrames	NumMarkers	Units	OrigDataRate	OrigDataStartFrame	OrigNumFrames
100.000000	100.000000	4	54	mm	100.000000	282	565
Frame#	Time	LPSI			L3			STRN			T10			C7			CLAV			RBAK			LBAK			LSHO			LUPA			LAEL			LAOL			LWTS			LWPS			LFRA			LHPS			LHTS			RSHO			RUPA			RAEL			RAOL			RWTS			RWPS			RFRA			RIFD			RHTS			RHPS			RBHD			LFHD			RFHD			LBHD			LHIP			RHIP			RASI			LKNE			LANK			LTIP			LTOE			LMT1			LMT5			LHEE			RKNE			RTHI			RANK			RTIP			RTOE			RMT1			RMT5			RHEE			LIFD			RPSI			LTHI			LASI			*53			
		X1	Y1	Z1	X2	Y2	Z2	X3	Y3	Z3	X4	Y4	Z4	X5	Y5	Z5	X6	Y6	Z6	X7	Y7	Z7	X8	Y8	Z8	X9	Y9	Z9	X10	Y10	Z10	X11	Y11	Z11	X12	Y12	Z12	X13	Y13	Z13	X14	Y14	Z14	X15	Y15	Z15	X16	Y16	Z16	X17	Y17	Z17	X18	Y18	Z18	X19	Y19	Z19	X20	Y20	Z20	X21	Y21	Z21	X22	Y22	Z22	X23	Y23	Z23	X24	Y24	Z24	X25	Y25	Z25	X26	Y26	Z26	X27	Y27	Z27	X28	Y28	Z28	X29	Y29	Z29	X30	Y30	Z30	X31	Y31	Z31	X32	Y32	Z32	X33	Y33	Z33	X34	Y34	Z34	X35	Y35	Z35	X36	Y36	Z36	X37	Y37	Z37	X38	Y38	Z38	X39	Y39	Z39	X40	Y40	Z40	X41	Y41	Z41	X42	Y42	Z42	X43	Y43	Z43	X44	Y44	Z44	X45	Y45	Z45	X46	Y46	Z46	X47	Y47	Z47	X48	Y48	Z48	X49	Y49	Z49	X50	Y50	Z50	X51	Y51	Z51	X52	Y52	Z52	X53	Y53	Z53	X54	Y54	Z54	

283	2.82	-179.248046875	960.3948364257812	-15.15103054046631	-155.7302703857422	1051.587646484375	74.86117553710938	124.7173233032227	1191.312622070312	77.27710723876953	-147.8330535888672	1175.449951171875	78.26653289794922	-60.34061813354492	1408.924682617188	70.38667297363281	80.75730133056641	1301.169799804688	76.02634429931641	-132.9883880615234	1280.494018554688	143.0246276855469	-82.45709991455078	1379.8740234375	-34.9339485168457	8.67772388458252	1371.688842773438	-84.69001007080078	-42.3963737487793	1267.84130859375	-164.6538696289062	-80.51808166503906	1078.301879882812	-193.4371032714844	-149.4247283935547	1063.699462890625	-140.7903137207031	39.51060104370117	889.41162109375	-160.1309967041016	8.322239875793457	869.1027221679688	-222.9146118164062	-54.5780143737793	983.4561157226562	-210.6427307128906	42.05902481079102	786.406005859375	-224.2272186279297	93.66798400878906	806.9188842773438	-188.2458801269531	2.982223749160767	1375.318115234375	227.9706268310547	-14.93961238861084	1321.636108398438	293.6787719726562	-96.79450988769531	1074.504028320312	352.3282775878906	-112.8974914550781	1057.4951171875	258.5840759277344	68.17982482910156	902.9339599609375	357.7934265136719	9.845531463623047	880.3250732421875	415.4462585449219	-70.82584381103516	1019.53076171875	376.4666442871094	151.9892578125	739.8554077148438	386.3380432128906	135.3555908203125	812.082275390625	398.8597717285156	77.27610015869141	788.9847412109375	431.8394470214844	-7.695600509643555	1559.124267578125	157.39404296875	168.4448089599609	1569.70263671875	39.32835388183594	166.2309417724609	1560.918823242188	132.21923828125	-6.056506156921387	1562.654907226562	9.930655479431152	-105.780632019043	913.3954467773438	-106.3198318481445	-94.54277801513672	927.662841796875	269.5792846679688	30.13987350463867	924.85205078125	204.1587219238281	150.6413879394531	509.8622741699219	-86.69959259033203	246.0414581298828	71.853515625	-82.85879516601562	195.2552032470703	285.4009704589844	-96.94589233398438	456.3179931640625	76.29076385498047	-40.33156585693359	389.0201721191406	64.27671813964844	1.851797223091125	368.330078125	74.278564453125	-106.7269287109375	207.0035552978516	61.93809127807617	-19.65312957763672	-84.11595153808594	451.6166687011719	210.6772766113281	-40.7226676940918	711.8829345703125	257.8743591308594	-302.3324890136719	54.80668258666992	174.6353149414062	-113.1825561523438	327.3549499511719	191.6846923828125	-116.4178771972656	44.77657699584961	98.69041442871094	-177.5741424560547	47.54481887817383	66.48335266113281	-195.6350402832031	36.78428649902344	183.9159851074219	-361.3794250488281	64.03719329833984	131.9693756103516	105.0549468994141	716.3282470703125	-165.4546203613281	-187.8007049560547	977.068603515625	158.6138153076172	70.12868499755859	627.8321533203125	-108.1008071899414	31.03291320800781	923.281982421875	-46.83171463012695	nan	nan	nan	
284	2.83	-185.7481842041016	962.265380859375	-13.63403987884521	-161.7076263427734	1053.390869140625	76.37744140625	118.7661209106445	1193.143310546875	78.26021575927734	-154.0196838378906	1177.213989257812	79.63092041015625	-66.07757568359375	1410.700317382812	71.81627655029297	74.79425048828125	1302.98681640625	77.29472351074219	-139.0222015380859	1282.276611328125	144.2610321044922	-88.30545043945312	1381.753540039062	-33.52001953125	2.692137718200684	1373.414184570312	-83.36602783203125	-48.67938232421875	1269.79931640625	-163.3349151611328	-87.42247009277344	1080.3974609375	-192.4194030761719	-156.3844604492188	1066.007446289062	-139.7586669921875	31.88629531860352	891.0509643554688	-158.9262542724609	0.713616669178009	870.7870483398438	-221.7480316162109	-61.79673004150391	985.39892578125	-209.5869140625	34.18899154663086	787.9867553710938	-222.918701171875	85.80668640136719	808.3716430664062	-186.8941345214844	-3.175395727157593	1376.978393554688	229.4472045898438	-21.5460262298584	1323.516967773438	295.1124267578125	-105.2420272827148	1076.89306640625	353.2231140136719	-120.3523712158203	1059.913208007812	259.2626647949219	54.59112548828125	899.7882080078125	361.2080383300781	-5.44879150390625	879.1025390625	417.8207092285156	-80.84117889404297	1020.819213867188	377.8189697265625	132.3855438232422	734.03857421875	391.512939453125	117.9364471435547	806.7972412109375	403.5613403320312	58.50686645507812	785.6951904296875	435.517822265625	-12.60392951965332	1560.94970703125	158.9904479980469	163.7486114501953	1570.454223632812	41.06119537353516	161.3617858886719	1561.60791015625	133.9502563476562	-10.83621025085449	1564.588745117188	11.54448795318604	-112.4606246948242	915.4007568359375	-105.065544128418	-99.96539306640625	929.1771850585938	270.7978515625	24.47475051879883	926.4928588867188	204.9617004394531	144.1099090576172	511.5100402832031	-85.59268188476562	235.2809295654297	71.45915222167969	-82.19025421142578	186.0702362060547	286.3753356933594	-96.30153656005859	445.3777465820312	81.96054840087891	-40.44009017944336	378.6494140625	67.26052093505859	2.157564163208008	357.2344055175781	77.30132293701172	-106.3193588256836	196.110107421875	60.87371063232422	-19.16938209533691	-88.2120361328125	453.1458740234375	211.4785003662109	-45.73944091796875	713.4743041992188	258.7589111328125	-302.4404907226562	54.22301483154297	174.70751953125	-116.3641891479492	328.5794372558594	192.1820068359375	-116.4743881225586	44.75253677368164	98.74122619628906	-177.6308898925781	47.49139785766602	66.55042266845703	-195.6617279052734	36.62619781494141	183.9300384521484	-361.5118408203125	63.19730377197266	132.0027313232422	96.83629608154297	717.783447265625	-163.9568328857422	-193.6895446777344	978.7138061523438	160.2138366699219	63.93499374389648	629.7021484375	-107.0538635253906	24.47179985046387	925.260986328125	-45.9569091796875	nan	nan	nan	
285	2.84	-191.9853668212891	964.2764892578125	-12.27606964111328	-167.5362091064453	1055.33984375	77.78385162353516	113.0148162841797	1195.126708984375	79.21683502197266	-159.9958801269531	1179.081176757812	80.97366333007812	-71.72010040283203	1412.572387695312	73.26387786865234	68.96815490722656	1304.930297851562	78.54983520507812	-144.8621978759766	1284.129760742188	145.5259094238281	-94.04460906982422	1383.742431640625	-32.0870361328125	-3.178678512573242	1375.288208007812	-82.02689361572266	-54.85042572021484	1271.911499023438	-162.0045318603516	-94.20587921142578	1082.626586914062	-191.3716583251953	-163.2187957763672	1068.492553710938	-138.6666717529297	24.26032829284668	892.7199096679688	-157.6878051757812	-6.906455516815186	872.5339965820312	-220.5424957275391	-68.95133209228516	987.453857421875	-208.4930419921875	26.22903442382812	789.6039428710938	-221.57177734375	77.85902404785156	809.799560546875	-185.4876708984375	-9.145839691162109	1378.748291015625	230.9099884033203	-27.89491653442383	1325.505981445312	296.5412902832031	-113.2233581542969	1079.375610351562	354.15625	-127.3792495727539	1062.39013671875	259.9931945800781	40.75799179077148	896.386474609375	364.530517578125	-20.95023536682129	877.90576171875	420.0592041015625	-90.54772186279297	1022.132080078125	379.1837768554688	111.8049697875977	727.8982543945312	396.4698791503906	99.86717987060547	801.17041015625	408.0680847167969	39.09140396118164	782.3426513671875	438.9865112304688	-17.53219032287598	1562.90576171875	160.5214080810547	159.0022735595703	1571.408813476562	42.69190216064453	156.4503784179688	1562.56396484375	135.5889587402344	-15.65877628326416	1566.559204101562	13.08660697937012	-118.8255157470703	917.5376586914062	-103.9174957275391	-105.297737121582	930.8512573242188	271.8907775878906	18.9111270904541	928.298095703125	205.7383575439453	137.7401733398438	513.2188720703125	-84.62337493896484	223.2811889648438	70.80294036865234	-81.30809020996094	176.4373168945312	287.205810546875	-95.63682556152344	433.0262451171875	86.37747192382812	-39.78667831420898	366.802001953125	69.45384216308594	3.050102710723877	344.9310607910156	79.37538146972656	-105.4000701904297	183.8704528808594	59.91873550415039	-18.53492164611816	-92.11842346191406	454.7767944335938	212.4026947021484	-50.66131210327148	715.2182006835938	259.6860961914062	-302.451904296875	53.816162109375	174.8530120849609	-119.2906799316406	329.9691162109375	192.81884765625	-116.5020523071289	44.73334121704102	98.82366180419922	-177.6536865234375	47.51600646972656	66.66116333007812	-195.6540679931641	36.46391677856445	183.9925079345703	-361.5401611328125	62.61529922485352	132.1162261962891	88.44878387451172	719.2089233398438	-162.3966217041016	-199.4348297119141	980.505859375	161.6170501708984	58.03959274291992	631.7843017578125	-106.1523284912109	18.17139625549316	927.3424072265625	-45.10226058959961	nan	nan	nan	
286	2.85	-197.9597015380859	966.4135131835938	-11.05943298339844	-173.2349548339844	1057.401611328125	79.08068084716797	107.4470748901367	1197.22412109375	80.16450500488281	-165.7686462402344	1181.037963867188	82.29231262207031	-77.27468872070312	1414.515258789062	74.72956085205078	63.26535034179688	1306.9697265625	79.80233001708984	-150.5267486572266	1286.037841796875	146.8224487304688	-99.67745971679688	1385.821655273438	-30.63336563110352	-8.927397727966309	1377.292236328125	-80.66850280761719	-60.90260696411133	1274.161987304688	-160.6676788330078	-100.8709411621094	1084.974609375	-190.2888336181641	-169.9258270263672	1071.142456054688	-137.5105895996094	16.65566635131836	894.4221801757812	-156.4188690185547	-14.51754570007324	874.3453369140625	-219.2986450195312	-76.03564453125	989.6162109375	-207.3587036132812	18.20300102233887	791.260986328125	-220.1923370361328	69.85484313964844	811.2093505859375	-184.0338439941406	-14.93020629882812	1380.588134765625	232.3608856201172	-33.98024749755859	1327.553833007812	297.9640502929688	-120.7291412353516	1081.90673828125	355.1421508789062	-133.9999389648438	1064.881713867188	260.7973937988281	26.69439315795898	892.792236328125	367.7413330078125	-36.6105842590332	876.7825317382812	422.156982421875	-99.93247222900391	1023.452514648438	380.5760498046875	90.27647399902344	721.5880126953125	401.1234741210938	81.16438293457031	795.3134155273438	412.3285522460938	19.08921813964844	779.028076171875	442.19970703125	-22.48397254943848	1564.953735351562	161.9994506835938	154.1873779296875	1572.54931640625	44.23077011108398	151.4903717041016	1563.759887695312	137.142822265625	-20.5398006439209	1568.536010742188	14.56942653656006	-124.8605728149414	919.792724609375	-102.8569412231445	-110.5517120361328	932.627197265625	272.8782043457031	13.42651462554932	930.224609375	206.5031585693359	131.4829864501953	514.9435424804688	-83.78159332275391	210.0684814453125	70.00653076171875	-80.33912658691406	166.4300537109375	287.9156799316406	-94.97069549560547	419.32177734375	89.37145233154297	-38.37179565429688	353.46630859375	70.704345703125	4.478039741516113	331.4926147460938	80.52670288085938	-104.0150756835938	170.29052734375	59.10221099853516	-17.89244842529297	-95.86320495605469	456.4727172851562	213.4071655273438	-55.4881706237793	717.0643920898438	260.63818359375	-302.4081115722656	53.55046081542969	175.0288391113281	-122.0052490234375	331.4919738769531	193.5684661865234	-116.5048904418945	44.71951293945312	98.92739868164062	-177.6453247070312	47.60129165649414	66.80181884765625	-195.6294708251953	36.30684280395508	184.0941467285156	-361.4957580566406	62.23532867431641	132.2638549804688	79.9161376953125	720.6043090820312	-160.7970123291016	-205.0448455810547	982.4013061523438	162.8479309082031	52.34120941162109	633.9920654296875	-105.3717422485352	12.12487125396729	929.5069580078125	-44.25629043579102	nan	nan	nan	
